<svg version="1.1" id="Layer_1" xmlns="http://www.w3.org/2000/svg" xmlns:xlink="http://www.w3.org/1999/xlink" x="0px" y="0px" viewBox="0 0 216 198.626" style="enable-background:new 0 0 216 198.626;" xml:space="preserve">
<style type="text/css">
	.st0{fill:#FFFFFF;}
</style>
<g>
	<path class="st0" d="M214.548,197.166c-0.958,0.974-2.128,1.457-3.5,1.457c-1.371,0-2.541-0.483-3.49-1.457   c-0.955-0.963-1.442-2.128-1.442-3.501c0-1.361,0.487-2.525,1.448-3.491c0.963-0.958,2.125-1.437,3.484-1.437   c1.372,0,2.542,0.479,3.5,1.437c0.968,0.966,1.452,2.124,1.452,3.491C216,195.029,215.516,196.203,214.548,197.166z    M208.027,190.662c-0.82,0.832-1.232,1.836-1.232,3.006c0,1.182,0.402,2.189,1.232,3.02c0.833,0.838,1.825,1.254,3.021,1.254   c1.186,0,2.192-0.416,3.02-1.254c0.818-0.831,1.233-1.838,1.233-3.02c0-1.17-0.415-2.174-1.233-3.006   c-0.838-0.827-1.834-1.246-3.02-1.246C209.874,189.416,208.862,189.835,208.027,190.662z M210.953,190.939   c0.682,0,1.181,0.066,1.494,0.2c0.566,0.236,0.843,0.692,0.843,1.376c0,0.483-0.164,0.847-0.531,1.077   c-0.187,0.113-0.451,0.207-0.783,0.259c0.427,0.065,0.732,0.239,0.931,0.527c0.195,0.288,0.3,0.564,0.3,0.834v0.395   c0,0.129,0.01,0.263,0.014,0.409c0,0.145,0.021,0.231,0.033,0.276l0.037,0.069h-0.886c-0.002-0.013-0.002-0.038-0.012-0.048   c0-0.021-0.008-0.038-0.008-0.066l-0.021-0.169v-0.424c0-0.626-0.17-1.046-0.525-1.239c-0.203-0.114-0.556-0.175-1.066-0.175   h-0.767v2.121h-0.951v-5.423H210.953z M211.988,191.825c-0.234-0.137-0.612-0.201-1.156-0.201h-0.827v1.941h0.869   c0.408,0,0.718-0.038,0.924-0.127c0.379-0.137,0.565-0.42,0.565-0.83C212.363,192.215,212.239,191.959,211.988,191.825z"/>
	<g>
		<path class="st0" d="M178.43,0H38.262C17.165,0,0,16.655,0,37.116v124.511c0,20.747,16.648,36.999,37.915,36.999h140.161    c21.267,0,37.924-16.252,37.924-36.999V37.116C216,16.306,199.502,0,178.43,0z"/>
	</g>
	<path d="M178.43,4.255H38.262c-19.065,0-34.008,14.426-34.008,32.854L4.253,161.62c0,18.364,14.791,32.746,33.662,32.746h140.161   c18.881,0,33.667-14.382,33.667-32.746V37.108C211.743,18.681,197.108,4.255,178.43,4.255z"/>
	<path class="st0" d="M185.494,118.204h-27.062l-4.292-26.979l-15.858,26.79h-2.966c-1.799-3.101-2.513-7.642-2.513-10.42   c0-4.608,0.332-9.104,0.332-14.952c0-7.758-2.279-11.921-8.365-13.384v-0.23c12.942-1.799,18.81-10.361,18.81-22.416   c0-17.126-11.394-20.841-26.323-20.841H77.083l-16.977,80.396h21.348l6.179-29.253h14.191c7.568,0,10.665,3.706,10.665,10.793   c0,5.392-0.562,9.661-0.562,13.815c0,1.535,0.348,5.105,1.386,6.491c-0.013,0,15.431,16.284,15.431,16.284l-13.277,28.548   c0,0,0,0,28.397-16.871l21.159,16.256l-3.949-26.935L185.494,118.204z M108.203,71.863H91.234l4.064-19.381h15.788   c5.621,0,11.467,1.462,11.467,8.341C122.554,69.493,115.896,71.863,108.203,71.863z M144.158,141.234l-19.778,11.742l9.054-19.44   l-11.009-11.594h18.101l11.449-19.343l3.102,19.533h17.959l-16.191,11.329l2.893,19.752L144.158,141.234z"/>
</g>
</svg>
