<svg version="1.1" id="Layer_1" xmlns="http://www.w3.org/2000/svg" xmlns:xlink="http://www.w3.org/1999/xlink" x="0px" y="0px"
	 viewBox="0 0 33.748 42.375" style="enable-background:new 0 0 33.748 42.375;" xml:space="preserve">
<style type="text/css">
	.st0{fill:#AA2323;}
</style>
<path class="st0" d="M31.681,0.057c-0.379,0.08-0.78,0.209-1.093,0.428c-3.554,2.483-7.198,4.868-9.682,8.562
	c-0.294,0.438-0.515,0.994-0.922,1.275c-1.582,1.095-2.723,2.422-2.881,4.435c-0.014,0.181-0.335,0.398-0.558,0.49
	c-0.398,0.164-0.845,0.052-1.026-0.316c-1.408-2.868-3.916-4.952-5.466-7.723C9.478,6.179,8.72,5.245,7.991,4.308
	c-1.01-1.3-2.28-2.19-3.998-2.261C3.175,2.21,2.481,2.004,1.89,1.49C1.792,1.431,1.7,1.355,1.617,1.249L1.614,1.248
	C1.076,1.789,0.538,2.329,0,2.87l0.001,0.003c0.396,0.173,0.611,0.474,0.646,0.905c0.75,1.391,1.652,2.723,2.22,4.185
	c1.174,3.022,2.918,5.593,5.361,7.711c1.632,1.415,1.34,3.977,3.137,5.33c0.17,0.128,0.105,0.81-0.07,1.108
	c-0.464,0.791-0.944,1.621-1.602,2.241c-1.8,1.698-2.678,3.873-3.446,6.129c-1.019,2.993-2.043,5.985-3.061,8.978
	c-0.127,0.374-0.268,0.749-0.336,1.135c-0.187,1.074,1.018,2.061,2.049,1.708c0.777-0.266,1.43-0.716,1.848-1.413
	c2.326-3.878,5.732-6.868,8.521-10.365c0.619-0.776,1.313-0.748,1.991,0.006c1.587,1.765,3.188,3.521,4.707,5.344
	c1.537,1.844,3.367,3.305,5.305,4.708c1.547,1.12,2.909,0.974,4.411,0.19c1.481-0.773,1.756-1.876,0.835-3.208
	c-3.599-5.204-7.191-10.412-10.787-15.618c-0.401-0.58-0.687-1.368-0.173-1.813c1.388-1.203,1.542-3.037,2.509-4.43
	c3.079-4.435,5.541-9.292,9.153-13.364c0.447-0.503,0.779-1.157,0.275-1.777C33.053,0.02,32.358-0.085,31.681,0.057z"/>
</svg>
